<mxfile host="app.diagrams.net" agent="Mozilla/5.0 (Macintosh; Intel Mac OS X 10_15_7) AppleWebKit/537.36 (KHTML, like Gecko) Chrome/135.0.0.0 Safari/537.36" version="26.2.14">
  <diagram name="Страница — 1" id="c3Y73X_-1jGL8Gwh_0au">
    <mxGraphModel dx="1380" dy="678" grid="1" gridSize="10" guides="1" tooltips="1" connect="1" arrows="1" fold="1" page="1" pageScale="1" pageWidth="827" pageHeight="1169" math="0" shadow="0">
      <root>
        <mxCell id="0" />
        <mxCell id="1" parent="0" />
        <mxCell id="LhB3Ph-GT4VmgVzCZ1XW-2" value="администратор" style="swimlane;fontStyle=1;align=center;horizontal=1;startSize=30;collapsible=0;html=1;whiteSpace=wrap;" vertex="1" parent="1">
          <mxGeometry x="170" y="260" width="250" height="180" as="geometry" />
        </mxCell>
        <mxCell id="LhB3Ph-GT4VmgVzCZ1XW-3" value="управление военнослужащими" style="shape=umlFrame;whiteSpace=wrap;html=1;pointerEvents=0;recursiveResize=0;container=1;collapsible=0;width=120;height=40;" vertex="1" parent="LhB3Ph-GT4VmgVzCZ1XW-2">
          <mxGeometry width="210" height="110" relative="1" as="geometry">
            <mxPoint x="20" y="50" as="offset" />
          </mxGeometry>
        </mxCell>
        <mxCell id="LhB3Ph-GT4VmgVzCZ1XW-4" value="добавить&amp;nbsp;&lt;div&gt;военнослужащего&lt;/div&gt;" style="text;align=left;html=1;" vertex="1" parent="LhB3Ph-GT4VmgVzCZ1XW-3">
          <mxGeometry width="100" height="30" relative="1" as="geometry">
            <mxPoint x="20" y="60" as="offset" />
          </mxGeometry>
        </mxCell>
        <mxCell id="LhB3Ph-GT4VmgVzCZ1XW-5" value="военнослужащий" style="swimlane;fontStyle=1;align=center;horizontal=1;startSize=30;collapsible=0;html=1;whiteSpace=wrap;" vertex="1" parent="1">
          <mxGeometry x="170" y="480" width="200" height="160" as="geometry" />
        </mxCell>
        <mxCell id="LhB3Ph-GT4VmgVzCZ1XW-6" value="прсомотр" style="shape=umlFrame;whiteSpace=wrap;html=1;pointerEvents=0;recursiveResize=0;container=1;collapsible=0;width=80;" vertex="1" parent="LhB3Ph-GT4VmgVzCZ1XW-5">
          <mxGeometry width="170" height="100" relative="1" as="geometry">
            <mxPoint x="20" y="50" as="offset" />
          </mxGeometry>
        </mxCell>
        <mxCell id="LhB3Ph-GT4VmgVzCZ1XW-7" value="просмотреть&lt;div&gt;&amp;nbsp;информацию&lt;/div&gt;&lt;div&gt;&amp;nbsp;о военнослужащих&lt;/div&gt;" style="text;align=left;html=1;" vertex="1" parent="LhB3Ph-GT4VmgVzCZ1XW-6">
          <mxGeometry width="100" height="20" relative="1" as="geometry">
            <mxPoint x="10" y="40" as="offset" />
          </mxGeometry>
        </mxCell>
        <mxCell id="LhB3Ph-GT4VmgVzCZ1XW-11" style="edgeStyle=orthogonalEdgeStyle;rounded=0;orthogonalLoop=1;jettySize=auto;html=1;entryX=0.5;entryY=0;entryDx=0;entryDy=0;" edge="1" parent="1" source="LhB3Ph-GT4VmgVzCZ1XW-4" target="LhB3Ph-GT4VmgVzCZ1XW-5">
          <mxGeometry relative="1" as="geometry" />
        </mxCell>
        <mxCell id="LhB3Ph-GT4VmgVzCZ1XW-12" value="военнослужащий" style="swimlane;fontStyle=1;align=center;horizontal=1;startSize=30;collapsible=0;html=1;whiteSpace=wrap;" vertex="1" parent="1">
          <mxGeometry x="414" y="480" width="200" height="160" as="geometry" />
        </mxCell>
        <mxCell id="LhB3Ph-GT4VmgVzCZ1XW-13" value="прсомотр" style="shape=umlFrame;whiteSpace=wrap;html=1;pointerEvents=0;recursiveResize=0;container=1;collapsible=0;width=80;" vertex="1" parent="LhB3Ph-GT4VmgVzCZ1XW-12">
          <mxGeometry width="170" height="100" relative="1" as="geometry">
            <mxPoint x="20" y="50" as="offset" />
          </mxGeometry>
        </mxCell>
        <mxCell id="LhB3Ph-GT4VmgVzCZ1XW-14" value="просмотреть&lt;div&gt;&amp;nbsp;информацию&lt;/div&gt;&lt;div&gt;&amp;nbsp;о военнослужащих&lt;/div&gt;" style="text;align=left;html=1;" vertex="1" parent="LhB3Ph-GT4VmgVzCZ1XW-13">
          <mxGeometry width="100" height="20" relative="1" as="geometry">
            <mxPoint x="10" y="40" as="offset" />
          </mxGeometry>
        </mxCell>
        <mxCell id="LhB3Ph-GT4VmgVzCZ1XW-15" style="edgeStyle=orthogonalEdgeStyle;rounded=0;orthogonalLoop=1;jettySize=auto;html=1;" edge="1" parent="1" source="LhB3Ph-GT4VmgVzCZ1XW-4" target="LhB3Ph-GT4VmgVzCZ1XW-12">
          <mxGeometry relative="1" as="geometry" />
        </mxCell>
        <mxCell id="LhB3Ph-GT4VmgVzCZ1XW-16" value="военнослужащий" style="swimlane;fontStyle=1;align=center;horizontal=1;startSize=30;collapsible=0;html=1;whiteSpace=wrap;" vertex="1" parent="1">
          <mxGeometry x="-60" y="480" width="200" height="160" as="geometry" />
        </mxCell>
        <mxCell id="LhB3Ph-GT4VmgVzCZ1XW-17" value="прсомотр" style="shape=umlFrame;whiteSpace=wrap;html=1;pointerEvents=0;recursiveResize=0;container=1;collapsible=0;width=80;" vertex="1" parent="LhB3Ph-GT4VmgVzCZ1XW-16">
          <mxGeometry width="170" height="100" relative="1" as="geometry">
            <mxPoint x="20" y="50" as="offset" />
          </mxGeometry>
        </mxCell>
        <mxCell id="LhB3Ph-GT4VmgVzCZ1XW-18" value="просмотреть&lt;div&gt;&amp;nbsp;информацию&lt;/div&gt;&lt;div&gt;&amp;nbsp;о военнослужащих&lt;/div&gt;" style="text;align=left;html=1;" vertex="1" parent="LhB3Ph-GT4VmgVzCZ1XW-17">
          <mxGeometry width="100" height="20" relative="1" as="geometry">
            <mxPoint x="10" y="40" as="offset" />
          </mxGeometry>
        </mxCell>
        <mxCell id="LhB3Ph-GT4VmgVzCZ1XW-19" style="edgeStyle=orthogonalEdgeStyle;rounded=0;orthogonalLoop=1;jettySize=auto;html=1;" edge="1" parent="1" source="LhB3Ph-GT4VmgVzCZ1XW-4" target="LhB3Ph-GT4VmgVzCZ1XW-16">
          <mxGeometry relative="1" as="geometry" />
        </mxCell>
      </root>
    </mxGraphModel>
  </diagram>
</mxfile>
